<svg width="224" height="55" viewBox="0 0 224 55" fill="none" xmlns="http://www.w3.org/2000/svg">
<g clip-path="url(#clip0_1_169)">
<path d="M87.7633 54.825H89.2719V51.8496H92.089C93.3975 51.8496 95.5478 51.8496 95.5478 49.4992C95.5478 47.1405 93.3975 47.1405 92.089 47.1405H87.7716V54.825H87.7633ZM89.2719 50.5494V48.4407H92.414C93.2808 48.4407 94.0392 48.5074 94.0392 49.4909C94.0392 50.4743 93.2808 50.5494 92.414 50.5494H89.2719Z" fill="#231F20"/>
<path d="M97.3564 54.825H98.9733L99.7901 53.0664H104.257L105.066 54.825H106.666L102.899 47.1405H101.165L97.3564 54.825ZM100.424 51.7745L102.04 48.3407L103.666 51.7745H100.424Z" fill="#231F20"/>
<path d="M110.442 54.825H111.95V51.7912H114.359L116.618 54.825H118.476L116.101 51.6912C117.243 51.6328 118.26 50.8494 118.26 49.4325C118.26 47.5572 116.951 47.1488 115.109 47.1488H110.442V54.825ZM111.95 50.5493V48.3823H114.884C116.126 48.3823 116.751 48.5657 116.751 49.4658C116.751 50.366 116.118 50.5493 114.884 50.5493H111.95Z" fill="#231F20"/>
<path d="M124.494 47.1488H122.985V54.8333H124.494V47.1488Z" fill="#231F20"/>
<path d="M135.204 49.4742C134.97 48.7991 134.337 48.2073 132.495 48.2073C131.462 48.2073 130.436 48.4657 130.436 49.1658C130.436 49.4992 130.628 49.8409 132.178 50.0243L134.004 50.2993C135.737 50.566 136.762 51.2244 136.762 52.508C136.762 54.3166 135.02 55 132.953 55C129.636 55 128.82 53.3664 128.636 52.783L130.086 52.3329C130.37 52.8914 130.937 53.7081 132.987 53.7081C134.229 53.7081 135.245 53.2998 135.245 52.633C135.245 52.1412 134.67 51.8162 133.562 51.6828L131.712 51.4245C129.92 51.1828 128.928 50.4076 128.928 49.2491C128.928 46.9655 131.928 46.9655 132.528 46.9655C135.871 46.9655 136.429 48.4907 136.629 49.0074L135.204 49.4742Z" fill="#231F20"/>
<path d="M192.479 34.4802C193.104 39.8227 195.896 39.0226 196.046 39.4893C196.046 39.4893 185.278 39.4726 185.278 39.456C185.228 39.2643 188.37 39.3976 187.745 34.7052L184.936 13.8438C184.811 13.2937 184.811 12.6602 184.52 12.8103C184.295 12.9103 175.035 35.3387 175.035 35.3387C174.893 35.7137 174.66 35.9471 174.36 35.4137C174.143 35.0303 165.683 16.4191 165.683 16.4191C165.267 15.4857 164.525 14.0021 164.4 13.7437C164.183 13.277 163.858 13.2187 163.883 14.7772L161.691 35.9138C161.158 39.5977 164.642 39.3226 164.592 39.5643H156.957C156.874 39.3726 159.524 39.7227 160.108 35.8471L162.616 12.5019C162.425 7.98453 159.249 8.22623 159.249 7.85118H167.267L167.384 8.10121L175.893 26.6707C176.018 26.8957 176.093 27.0041 176.16 27.1458C176.41 27.6625 176.385 28.0376 176.668 27.3291L185.003 7.82617L192.713 7.85118C192.763 8.11788 189.612 7.98453 189.612 11.8601L192.479 34.4802Z" fill="#231F20"/>
<path d="M16.6609 38.4474L12.3019 38.4558C10.7933 38.3974 8.97636 38.6808 8.97636 36.8805V12.3268C8.97636 8.53458 13.1853 8.51791 13.4604 8.2262H0.500076C0.325049 8.48457 4.46734 8.60125 4.46734 12.4685V36.1471C4.409 39.2809 0 39.3559 0 39.5393H22.9451L24.2203 32.7633C23.7453 32.7132 24.087 38.3558 16.6609 38.4474Z" fill="#231F20"/>
<path d="M207.256 23.9036L207.265 31.7131V35.8221C207.298 38.1974 207.073 38.4725 208.623 38.4891L217.1 38.4725C223.876 38.0641 222.675 33.305 223.25 33.1883L223.05 39.556H199.23C199.13 39.3226 202.772 39.9227 202.772 34.7219V30.6129V12.7769C202.772 7.56778 199.422 8.35957 199.464 7.95117H223.05L223.25 14.2188C222.784 14.1771 224.026 9.30971 217.008 8.87631H209.182C208.015 9.17636 207.265 8.37624 207.265 11.4767L207.256 18.2277L207.281 19.7363C207.281 20.8865 207.306 20.9948 208.923 20.9948H216.491C220.308 20.9948 219.792 17.5443 220.133 17.5443C220.142 17.5443 220.133 25.7122 220.133 25.7122C219.792 25.7122 220.3 21.9283 216.675 22.045H209.015C207.331 22.0116 207.273 22.6201 207.273 23.7702L207.256 23.9036Z" fill="#231F20"/>
<path d="M65.5599 36.2638C66.0017 40.1644 68.9771 39.1725 68.9771 39.5476L60.6592 39.5559C60.6925 39.1809 63.993 39.5393 63.943 36.0221V35.672V12.2435C64.0014 8.1345 60.4258 8.12617 60.3258 7.80945H68.6771L85.9464 29.2294L85.888 11.8434C85.7713 7.6511 82.5625 7.94281 82.5125 7.71777H91.2222C91.1888 7.92614 87.78 8.00948 87.6049 11.8434L87.5716 38.7475C87.5716 38.7475 87.8717 40.7894 86.6298 39.1809C86.088 38.4724 65.8683 12.8602 65.8683 12.8602C65.6766 12.6435 65.5933 12.8769 65.5766 13.5103L65.5599 35.922V36.2638Z" fill="#231F20"/>
<path d="M54.3749 35.5637L42.7565 7.9762C41.9147 7.03439 41.6146 8.10955 41.6146 8.10955C40.4728 10.7683 29.8545 36.3222 29.8545 36.3222C28.4126 39.731 26.529 39.3226 26.529 39.556H34.0385C34.0385 39.1726 29.9879 39.7977 31.3798 36.2555L35.397 26.4123C35.8138 25.7956 35.8388 25.6039 36.8389 25.6039C38.4975 25.6039 43.5733 25.5955 44.3401 25.5955C45.2652 25.5955 45.3069 25.5955 45.6986 26.504L49.4908 35.8138C50.6077 39.531 47.2238 39.3226 47.2738 39.556H57.9421C58.0338 39.2393 56.3085 40.3144 54.3749 35.5637ZM37.5557 24.087C36.7222 24.087 36.8389 23.5952 37.1556 22.8201C37.1556 22.8201 39.9894 15.7524 40.3228 14.8939C40.7562 13.7937 41.2229 14.0104 41.548 14.9523L44.3901 22.9368C44.6818 23.8286 45.0318 24.0786 44.0734 24.0786H37.5557V24.087Z" fill="#231F20"/>
<path d="M152.615 6.30095L139.838 0L127.069 6.30095L139.838 2.39203L152.615 6.30095Z" fill="#231F20"/>
<path d="M139.905 7.2594C129.97 7.2594 123.535 15.1773 123.535 23.6035C123.535 32.0298 129.886 39.5393 139.83 39.5393C149.773 39.5393 156.29 32.0298 156.29 23.6035C156.29 15.1773 149.856 7.2594 139.905 7.2594ZM139.838 38.3641H139.746H139.738C133.629 38.3641 129.586 32.6299 129.586 23.6786C129.586 13.427 133.72 8.45958 139.83 8.45958C139.838 8.45958 139.838 8.46792 139.838 8.46792C145.939 8.47625 150.089 13.4353 150.089 23.6786C150.089 32.5799 145.897 38.2974 139.838 38.3641Z" fill="#231F20"/>
<path d="M109.583 38.2974C116.776 38.1724 119.977 33.1883 120.627 32.955C120.935 32.8383 117.109 39.4893 109.492 39.4893C92.3557 39.4893 92.664 23.9619 92.664 23.9619C93.1891 13.0603 102.015 6.5593 110.458 7.4511C112.725 7.69281 113.709 8.0512 115.376 8.57627C116.151 8.83465 118.251 9.96815 119.093 9.65977C119.676 9.44307 120.11 8.20122 120.26 8.12621L120.335 16.6358C119.726 16.6358 117.851 8.45126 109.692 8.45126C103.007 8.45126 97.9398 16.0941 98.0565 23.5702C98.2315 36.0804 106.958 38.3308 109.583 38.2974Z" fill="#231F20"/>
</g>
<defs>
<clipPath id="clip0_1_169">
<rect width="223.25" height="55" fill="white"/>
</clipPath>
</defs>
</svg>
